# xmcd
#
# Track frame offsets:
#	150
#	12878
#	27378
#	44525
#	61711
#	79334
#	94979
#	116096
#	135038
#	157343
#	178985
#	197763
#	213355
#	238062
#	262884
#	283862
#
# Disc length: 4006 seconds
#
# Revision: 0
# Processed by: cddbd v1.5.2PL0 Copyright (c) Steve Scherf et al.
# Submitted via: EasyCDDAExtractor 12.0.0.1
#
DISCID=e60fa410
DTITLE=Various Artist - 难忘的回忆-世纪粤语好经典
DYEAR=1900
DGENRE=
TTITLE0=麦洁文 - 莱茵河之恋
TTITLE1=曾路得 - 天各一方
TTITLE2=吕方 - 听不到的说话
TTITLE3=Raidas - 别人的歌
TTITLE4=叶倩文 - 焚心以火
TTITLE5=林子祥 - 最爱是谁
TTITLE6=陈百强 - 一生何求
TTITLE7=王杰 - 几分伤心几分痴
TTITLE8=周润发 - 旧情人
TTITLE9=苏芮 - 谁可相依
TTITLE10=罗文 - 几许风雨
TTITLE11=曾航生/何婉莹 - 再见亦是朋友
TTITLE12=梁朝伟 - 朦胧夜雨里
TTITLE13=刘美君 - 最后一夜
TTITLE14=周啓生 - 浅草妖姬
TTITLE15=蔡龄龄 - 人生嘉年华
EXTD=
EXTT0=
EXTT1=
EXTT2=
EXTT3=
EXTT4=
EXTT5=
EXTT6=
EXTT7=
EXTT8=
EXTT9=
EXTT10=
EXTT11=
EXTT12=
EXTT13=
EXTT14=
EXTT15=
PLAYORDER=
